<svg xmlns="http://www.w3.org/2000/svg" viewBox="0 0 512 512">
  <rect width="512" height="512" rx="112" fill="#0f172a"/>
  <g fill="#2563eb">
    <path d="M118 300c0-14 8-38 18-62l16-38c8-18 24-30 44-30h120c20 0 36 12 44 30l16 38c10 24 18 48 18 62v66c0 10-8 18-18 18h-16c-10 0-18-8-18-18v-12H164v12c0 10-8 18-18 18h-16c-10 0-18-8-18-18v-66z"/>
  </g>
  <g fill="#0f172a">
    <path d="M170 208c4-10 14-18 26-18h120c12 0 22 8 26 18l14 34H156l14-34z"/>
    <circle cx="172" cy="308" r="20"/>
    <circle cx="340" cy="308" r="20"/>
  </g>
</svg>
